<svg width="1920" height="1080" viewBox="0 0 1920 1080" fill="none" xmlns="http://www.w3.org/2000/svg" xmlns:xlink="http://www.w3.org/1999/xlink">
<g clip-path="url(#clip0_217_4)">
<rect x="-14" width="1709" height="1080" fill="url(#pattern0_217_4)"/>
<path d="M24.8937 164.608H56.8617C59.7417 199.168 83.9337 208.672 114.75 208.672C148.158 208.672 168.606 197.728 168.606 176.704C168.606 154.24 145.278 150.784 122.814 147.616L98.0457 143.872C64.0617 138.976 30.6537 132.352 30.6537 91.744C30.6537 55.456 55.7097 26.944 110.718 26.944C172.926 26.944 191.646 63.52 194.526 97.792H162.558C159.678 64.384 138.366 53.728 111.006 53.728C74.7177 53.728 62.3337 72.736 62.3337 88.864C62.3337 106.144 77.5977 110.176 105.534 114.208L132.03 118.528C169.182 124.288 200.286 135.232 200.286 174.4C200.286 212.704 170.334 235.456 114.75 235.456C47.3577 235.456 27.7737 201.76 24.8937 164.608ZM295.58 170.368H239.132V232H207.452V30.4H295.58C341.372 30.4 370.748 55.744 370.748 100.672C370.748 145.6 341.372 170.368 295.58 170.368ZM239.132 58.912V141.856H291.548C323.804 141.856 339.068 128.608 339.068 101.248C339.068 73.6 323.804 58.912 291.548 58.912H239.132ZM337.689 232L427.545 30.4H462.393L552.249 232H517.977L496.953 185.344H392.697L371.961 232H337.689ZM444.825 68.704L405.369 157.12H484.281L444.825 68.704ZM562.441 232V30.4H651.145C695.209 30.4 726.025 54.304 726.025 97.504C726.025 130.624 707.881 153.088 675.913 159.136L732.073 232H693.193L639.913 162.016H594.121V232H562.441ZM594.121 58.912V134.08H647.113C678.217 134.08 694.345 124 694.345 97.504C694.345 71.008 678.217 58.912 647.113 58.912H594.121ZM740.619 232V30.4H772.299V117.088H791.595L871.371 30.4H910.827L817.803 131.2L914.283 232H874.827L792.171 145.6H772.299V232H740.619ZM923.296 269.728V244.96H1081.7V269.728H923.296ZM1098.94 232V30.4H1130.62V232H1098.94ZM1290.87 232L1179.71 79.072V232H1148.03V30.4H1181.43L1292.31 183.328V30.4H1323.99V232H1290.87ZM1341.67 232V30.4H1373.35V232H1341.67ZM1385 58.912V30.4H1569.32V58.912H1493V232H1461.32V58.912H1385Z" fill="#808080" fill-opacity="0.4"/>
<path d="M24.8937 398.608H56.8617C59.7417 433.168 83.9337 442.672 114.75 442.672C148.158 442.672 168.606 431.728 168.606 410.704C168.606 388.24 145.278 384.784 122.814 381.616L98.0457 377.872C64.0617 372.976 30.6537 366.352 30.6537 325.744C30.6537 289.456 55.7097 260.944 110.718 260.944C172.926 260.944 191.646 297.52 194.526 331.792H162.558C159.678 298.384 138.366 287.728 111.006 287.728C74.7177 287.728 62.3337 306.736 62.3337 322.864C62.3337 340.144 77.5977 344.176 105.534 348.208L132.03 352.528C169.182 358.288 200.286 369.232 200.286 408.4C200.286 446.704 170.334 469.456 114.75 469.456C47.3577 469.456 27.7737 435.76 24.8937 398.608ZM295.58 404.368H239.132V466H207.452V264.4H295.58C341.372 264.4 370.748 289.744 370.748 334.672C370.748 379.6 341.372 404.368 295.58 404.368ZM239.132 292.912V375.856H291.548C323.804 375.856 339.068 362.608 339.068 335.248C339.068 307.6 323.804 292.912 291.548 292.912H239.132ZM337.689 466L427.545 264.4H462.393L552.249 466H517.977L496.953 419.344H392.697L371.961 466H337.689ZM444.825 302.704L405.369 391.12H484.281L444.825 302.704ZM562.441 466V264.4H651.145C695.209 264.4 726.025 288.304 726.025 331.504C726.025 364.624 707.881 387.088 675.913 393.136L732.073 466H693.193L639.913 396.016H594.121V466H562.441ZM594.121 292.912V368.08H647.113C678.217 368.08 694.345 358 694.345 331.504C694.345 305.008 678.217 292.912 647.113 292.912H594.121ZM740.619 466V264.4H772.299V351.088H791.595L871.371 264.4H910.827L817.803 365.2L914.283 466H874.827L792.171 379.6H772.299V466H740.619ZM923.296 503.728V478.96H1081.7V503.728H923.296ZM1098.94 466V264.4H1130.62V466H1098.94ZM1290.87 466L1179.71 313.072V466H1148.03V264.4H1181.43L1292.31 417.328V264.4H1323.99V466H1290.87ZM1341.67 466V264.4H1373.35V466H1341.67ZM1385 292.912V264.4H1569.32V292.912H1493V466H1461.32V292.912H1385Z" fill="#808080" fill-opacity="0.4"/>
<path d="M24.8937 749.608H56.8617C59.7417 784.168 83.9337 793.672 114.75 793.672C148.158 793.672 168.606 782.728 168.606 761.704C168.606 739.24 145.278 735.784 122.814 732.616L98.0457 728.872C64.0617 723.976 30.6537 717.352 30.6537 676.744C30.6537 640.456 55.7097 611.944 110.718 611.944C172.926 611.944 191.646 648.52 194.526 682.792H162.558C159.678 649.384 138.366 638.728 111.006 638.728C74.7177 638.728 62.3337 657.736 62.3337 673.864C62.3337 691.144 77.5977 695.176 105.534 699.208L132.03 703.528C169.182 709.288 200.286 720.232 200.286 759.4C200.286 797.704 170.334 820.456 114.75 820.456C47.3577 820.456 27.7737 786.76 24.8937 749.608ZM295.58 755.368H239.132V817H207.452V615.4H295.58C341.372 615.4 370.748 640.744 370.748 685.672C370.748 730.6 341.372 755.368 295.58 755.368ZM239.132 643.912V726.856H291.548C323.804 726.856 339.068 713.608 339.068 686.248C339.068 658.6 323.804 643.912 291.548 643.912H239.132ZM337.689 817L427.545 615.4H462.393L552.249 817H517.977L496.953 770.344H392.697L371.961 817H337.689ZM444.825 653.704L405.369 742.12H484.281L444.825 653.704ZM562.441 817V615.4H651.145C695.209 615.4 726.025 639.304 726.025 682.504C726.025 715.624 707.881 738.088 675.913 744.136L732.073 817H693.193L639.913 747.016H594.121V817H562.441ZM594.121 643.912V719.08H647.113C678.217 719.08 694.345 709 694.345 682.504C694.345 656.008 678.217 643.912 647.113 643.912H594.121ZM740.619 817V615.4H772.299V702.088H791.595L871.371 615.4H910.827L817.803 716.2L914.283 817H874.827L792.171 730.6H772.299V817H740.619ZM923.296 854.728V829.96H1081.7V854.728H923.296ZM1098.94 817V615.4H1130.62V817H1098.94ZM1290.87 817L1179.71 664.072V817H1148.03V615.4H1181.43L1292.31 768.328V615.4H1323.99V817H1290.87ZM1341.67 817V615.4H1373.35V817H1341.67ZM1385 643.912V615.4H1569.32V643.912H1493V817H1461.32V643.912H1385Z" fill="#808080" fill-opacity="0.4"/>
<path d="M24.3256 983.608H56.2936C59.1736 1018.17 83.3656 1027.67 114.182 1027.67C147.59 1027.67 168.038 1016.73 168.038 995.704C168.038 973.24 144.71 969.784 122.246 966.616L97.4776 962.872C63.4936 957.976 30.0856 951.352 30.0856 910.744C30.0856 874.456 55.1416 845.944 110.15 845.944C172.358 845.944 191.078 882.52 193.958 916.792H161.99C159.11 883.384 137.798 872.728 110.438 872.728C74.1496 872.728 61.7656 891.736 61.7656 907.864C61.7656 925.144 77.0296 929.176 104.966 933.208L131.462 937.528C168.614 943.288 199.718 954.232 199.718 993.4C199.718 1031.7 169.766 1054.46 114.182 1054.46C46.7896 1054.46 27.2056 1020.76 24.3256 983.608ZM295.012 989.368H238.564V1051H206.884V849.4H295.012C340.804 849.4 370.18 874.744 370.18 919.672C370.18 964.6 340.804 989.368 295.012 989.368ZM238.564 877.912V960.856H290.98C323.236 960.856 338.5 947.608 338.5 920.248C338.5 892.6 323.236 877.912 290.98 877.912H238.564ZM337.121 1051L426.977 849.4H461.825L551.681 1051H517.409L496.385 1004.34H392.129L371.393 1051H337.121ZM444.257 887.704L404.801 976.12H483.713L444.257 887.704ZM561.873 1051V849.4H650.577C694.641 849.4 725.457 873.304 725.457 916.504C725.457 949.624 707.313 972.088 675.345 978.136L731.505 1051H692.625L639.345 981.016H593.553V1051H561.873ZM593.553 877.912V953.08H646.545C677.649 953.08 693.777 943 693.777 916.504C693.777 890.008 677.649 877.912 646.545 877.912H593.553ZM740.051 1051V849.4H771.731V936.088H791.027L870.803 849.4H910.259L817.235 950.2L913.715 1051H874.259L791.603 964.6H771.731V1051H740.051ZM1099.51 1051V849.4H1131.19V1051H1099.51ZM1291.44 1051L1180.27 898.072V1051H1148.59V849.4H1182L1292.88 1002.33V849.4H1324.56V1051H1291.44ZM1342.24 1051V849.4H1373.92V1051H1342.24ZM1385.56 877.912V849.4H1569.88V877.912H1493.56V1051H1461.88V877.912H1385.56Z" fill="#808080" fill-opacity="0.4"/>
<path d="M1743 42.34H1890.15V68.53H1743V42.34ZM1799.16 17.5L1827.78 21.82C1821.3 51.7 1811.04 77.08 1797 97.96C1783.14 118.84 1765.14 135.67 1743 148.45C1741.74 146.47 1739.94 144.04 1737.6 141.16C1735.26 138.28 1732.83 135.49 1730.31 132.79C1727.97 129.91 1725.72 127.66 1723.56 126.04C1744.44 115.78 1761 101.56 1773.24 83.38C1785.66 65.02 1794.3 43.06 1799.16 17.5ZM1840.47 57.19C1844.07 66.73 1848.57 75.91 1853.97 84.73C1859.55 93.55 1866.03 101.56 1873.41 108.76C1880.79 115.78 1888.62 121.63 1896.9 126.31C1893.84 128.83 1890.42 132.34 1886.64 136.84C1882.86 141.34 1879.89 145.39 1877.73 148.99C1868.55 143.23 1860.09 135.94 1852.35 127.12C1844.61 118.3 1837.77 108.49 1831.83 97.69C1826.07 86.89 1821.12 75.55 1816.98 63.67L1840.47 57.19ZM1780.53 163.84V175.99H1836.96V163.84H1780.53ZM1780.53 131.98V143.86H1836.96V131.98H1780.53ZM1753.53 110.65H1865.31V197.32H1753.53V110.65ZM1796.46 185.71H1826.43V241.33C1826.43 247.81 1825.8 253.03 1824.54 256.99C1823.28 260.95 1820.49 264.1 1816.17 266.44C1811.85 268.78 1806.9 270.13 1801.32 270.49C1795.92 271.03 1789.53 271.3 1782.15 271.3C1781.79 266.98 1780.71 262.21 1778.91 256.99C1777.29 251.95 1775.67 247.45 1774.05 243.49C1777.83 243.67 1781.52 243.76 1785.12 243.76C1788.9 243.76 1791.51 243.76 1792.95 243.76C1794.39 243.76 1795.29 243.58 1795.65 243.22C1796.19 242.86 1796.46 242.05 1796.46 240.79V185.71ZM1758.12 204.34L1785.93 211.9C1781.79 220.72 1776.48 229.63 1770 238.63C1763.7 247.45 1757.49 254.74 1751.37 260.5C1749.57 258.88 1747.23 256.99 1744.35 254.83C1741.47 252.85 1738.5 250.87 1735.44 248.89C1732.38 247.09 1729.68 245.56 1727.34 244.3C1733.64 239.26 1739.49 233.14 1744.89 225.94C1750.47 218.74 1754.88 211.54 1758.12 204.34ZM1838.04 215.95L1860.99 203.53C1864.77 207.67 1868.73 212.26 1872.87 217.3C1877.01 222.16 1880.88 227.02 1884.48 231.88C1888.08 236.56 1890.96 240.88 1893.12 244.84L1868.82 259.15C1866.84 255.19 1864.14 250.78 1860.72 245.92C1857.3 240.88 1853.61 235.75 1849.65 230.53C1845.69 225.31 1841.82 220.45 1838.04 215.95ZM1740.03 88.51L1756.5 70.15C1761.18 73.21 1765.95 76.81 1770.81 80.95C1775.67 84.91 1779.45 88.51 1782.15 91.75L1765.14 112.27C1762.62 108.85 1758.93 104.89 1754.07 100.39C1749.21 95.89 1744.53 91.93 1740.03 88.51ZM1871.79 70.96L1892.85 88.51C1887.63 93.19 1882.23 97.69 1876.65 102.01C1871.25 106.15 1866.39 109.75 1862.07 112.81L1845.33 97.96C1849.47 94.54 1854.06 90.22 1859.1 85C1864.32 79.6 1868.55 74.92 1871.79 70.96ZM1679.01 20.47H1706.82V113.35C1706.82 127.03 1706.37 140.8 1705.47 154.66C1704.57 168.52 1702.59 182.2 1699.53 195.7C1696.65 209.2 1692.24 222.25 1686.3 234.85C1680.54 247.27 1672.71 258.97 1662.81 269.95C1661.37 267.61 1659.39 265 1656.87 262.12C1654.35 259.42 1651.74 256.81 1649.04 254.29C1646.52 251.77 1644.18 249.7 1642.02 248.08C1653.18 235.48 1661.37 221.71 1666.59 206.77C1671.81 191.83 1675.14 176.44 1676.58 160.6C1678.2 144.58 1679.01 128.74 1679.01 113.08V20.47ZM1652.55 73.93L1672.53 76.63C1672.35 84.01 1671.81 92.2 1670.91 101.2C1670.19 110.02 1669.02 118.66 1667.4 127.12C1665.96 135.58 1664.07 143.14 1661.73 149.8L1641.48 142.24C1643.64 136.48 1645.44 129.64 1646.88 121.72C1648.5 113.8 1649.76 105.7 1650.66 97.42C1651.56 88.96 1652.19 81.13 1652.55 73.93ZM1718.43 64.21L1741.92 72.58C1739.4 78.88 1736.88 85.45 1734.36 92.29C1731.84 99.13 1729.41 105.7 1727.07 112C1724.73 118.12 1722.48 123.61 1720.32 128.47L1703.31 121.18C1705.29 115.96 1707.18 110.02 1708.98 103.36C1710.96 96.7 1712.76 89.95 1714.38 83.11C1716.18 76.27 1717.53 69.97 1718.43 64.21ZM1701.69 166.27C1703.67 168.07 1706.55 171.04 1710.33 175.18C1714.11 179.14 1718.07 183.46 1722.21 188.14C1726.53 192.82 1730.49 197.23 1734.09 201.37C1737.69 205.33 1740.3 208.21 1741.92 210.01L1722.21 231.88C1720.05 228.46 1717.26 224.41 1713.84 219.73C1710.42 215.05 1706.82 210.28 1703.04 205.42C1699.44 200.38 1695.84 195.7 1692.24 191.38C1688.64 187.06 1685.58 183.46 1683.06 180.58L1701.69 166.27Z" fill="#808080" fill-opacity="0.4"/>
<path d="M1684.14 288.65H1891.77V317.81H1684.14V288.65ZM1664.97 288.65H1696.83V368.84C1696.83 380.54 1696.47 393.32 1695.75 407.18C1695.21 421.04 1693.95 435.26 1691.97 449.84C1690.17 464.42 1687.38 478.64 1683.6 492.5C1680 506.18 1675.23 518.6 1669.29 529.76C1667.31 527.78 1664.52 525.71 1660.92 523.55C1657.5 521.57 1653.9 519.59 1650.12 517.61C1646.52 515.81 1643.37 514.46 1640.67 513.56C1646.43 503.3 1650.93 492.05 1654.17 479.81C1657.41 467.39 1659.75 454.7 1661.19 441.74C1662.81 428.6 1663.8 415.82 1664.16 403.4C1664.7 390.98 1664.97 379.46 1664.97 368.84V288.65ZM1746.51 398.81V414.47H1838.58V398.81H1746.51ZM1746.51 361.01V376.4H1838.58V361.01H1746.51ZM1714.92 336.71H1872.06V438.77H1714.92V336.71ZM1777.02 425.27H1808.34V498.71C1808.34 505.91 1807.44 511.67 1805.64 515.99C1804.02 520.31 1800.69 523.55 1795.65 525.71C1790.61 527.87 1784.49 529.13 1777.29 529.49C1770.09 530.03 1761.72 530.3 1752.18 530.3C1751.46 526.16 1750.2 521.39 1748.4 515.99C1746.78 510.59 1744.98 505.82 1743 501.68C1748.94 501.86 1754.79 502.04 1760.55 502.22C1766.31 502.22 1770.09 502.13 1771.89 501.95C1773.87 501.95 1775.22 501.68 1775.94 501.14C1776.66 500.6 1777.02 499.52 1777.02 497.9V425.27ZM1771.62 315.38L1810.5 318.08C1808.52 324.92 1806.54 331.31 1804.56 337.25C1802.76 343.01 1801.23 347.96 1799.97 352.1L1766.49 348.59C1767.21 345.35 1767.84 341.75 1768.38 337.79C1769.1 333.83 1769.73 329.96 1770.27 326.18C1770.99 322.22 1771.44 318.62 1771.62 315.38ZM1821.57 461.45L1846.41 446.06C1852.35 451.1 1858.56 456.77 1865.04 463.07C1871.52 469.37 1877.55 475.67 1883.13 481.97C1888.89 488.09 1893.39 493.85 1896.63 499.25L1869.9 516.26C1867.02 511.04 1862.88 505.28 1857.48 498.98C1852.08 492.5 1846.23 486.02 1839.93 479.54C1833.81 472.88 1827.69 466.85 1821.57 461.45ZM1731.39 447.41L1762.71 456.05C1756.41 467.93 1748.49 479.45 1738.95 490.61C1729.59 501.59 1720.14 510.77 1710.6 518.15C1708.44 516.35 1705.74 514.19 1702.5 511.67C1699.44 509.33 1696.2 507.08 1692.78 504.92C1689.36 502.58 1686.39 500.69 1683.87 499.25C1693.59 493.31 1702.68 485.75 1711.14 476.57C1719.6 467.21 1726.35 457.49 1731.39 447.41Z" fill="#808080" fill-opacity="0.4"/>
<path d="M1664.05 568.26L1684.84 547.2C1689.88 551.16 1695.28 555.57 1701.04 560.43C1706.98 565.11 1712.56 569.79 1717.78 574.47C1723 579.15 1727.23 583.47 1730.47 587.43L1708.6 610.92C1705.54 606.96 1701.49 602.46 1696.45 597.42C1691.59 592.38 1686.28 587.34 1680.52 582.3C1674.76 577.08 1669.27 572.4 1664.05 568.26ZM1683.76 796.95L1676.47 765.36L1683.76 754.83L1743.16 712.98C1743.88 716.04 1744.78 719.46 1745.86 723.24C1747.12 727.02 1748.38 730.71 1749.64 734.31C1751.08 737.73 1752.34 740.61 1753.42 742.95C1739.74 752.85 1728.67 760.95 1720.21 767.25C1711.75 773.55 1705.09 778.5 1700.23 782.1C1695.37 785.88 1691.77 788.85 1689.43 791.01C1687.09 793.35 1685.2 795.33 1683.76 796.95ZM1643.26 627.93H1703.47V660.06H1643.26V627.93ZM1732.09 629.82H1894.09V663.57H1732.09V629.82ZM1796.89 545.85H1831.72V798.3H1796.89V545.85ZM1683.76 796.95C1683.04 794.07 1681.69 790.74 1679.71 786.96C1677.91 783.18 1675.93 779.4 1673.77 775.62C1671.61 772.02 1669.63 769.05 1667.83 766.71C1671.07 764.73 1674.31 761.58 1677.55 757.26C1680.97 752.76 1682.68 747.54 1682.68 741.6V627.93H1715.62V765.9C1715.62 765.9 1714.54 766.62 1712.38 768.06C1710.22 769.32 1707.61 771.12 1704.55 773.46C1701.49 775.8 1698.34 778.32 1695.1 781.02C1691.86 783.72 1689.16 786.42 1687 789.12C1684.84 792 1683.76 794.61 1683.76 796.95Z" fill="#808080" fill-opacity="0.4"/>
<path d="M1802.4 840.39H1833.45V989.43H1802.4V840.39ZM1853.97 814.2H1885.56V1027.5C1885.56 1036.32 1884.57 1043.16 1882.59 1048.02C1880.61 1052.88 1877.01 1056.57 1871.79 1059.09C1866.75 1061.61 1860.18 1063.23 1852.08 1063.95C1843.98 1064.85 1834.08 1065.3 1822.38 1065.3C1821.84 1060.8 1820.49 1055.4 1818.33 1049.1C1816.35 1042.98 1814.28 1037.67 1812.12 1033.17C1819.68 1033.35 1826.88 1033.53 1833.72 1033.71C1840.56 1033.71 1845.15 1033.71 1847.49 1033.71C1850.01 1033.53 1851.72 1033.08 1852.62 1032.36C1853.52 1031.46 1853.97 1029.84 1853.97 1027.5V814.2ZM1642.02 886.83L1790.52 870.63L1793.49 901.14L1644.99 917.61L1642.02 886.83ZM1674.96 811.77H1708.17C1707.81 834.09 1708.44 855.87 1710.06 877.11C1711.86 898.35 1714.38 918.24 1717.62 936.78C1721.04 955.32 1724.91 971.61 1729.23 985.65C1733.55 999.69 1738.23 1010.76 1743.27 1018.86C1748.31 1026.78 1753.44 1030.74 1758.66 1030.74C1761.72 1030.74 1764.06 1027.32 1765.68 1020.48C1767.3 1013.64 1768.47 1002.3 1769.19 986.46C1772.79 990.06 1777.11 993.57 1782.15 996.99C1787.19 1000.23 1791.78 1002.66 1795.92 1004.28C1794.3 1019.94 1791.87 1032 1788.63 1040.46C1785.57 1048.92 1781.43 1054.77 1776.21 1058.01C1770.99 1061.43 1764.33 1063.14 1756.23 1063.14C1746.87 1063.14 1738.32 1059.81 1730.58 1053.15C1723.02 1046.49 1716.27 1037.22 1710.33 1025.34C1704.39 1013.46 1699.17 999.6 1694.67 983.76C1690.35 967.74 1686.75 950.37 1683.87 931.65C1680.99 912.93 1678.83 893.4 1677.39 873.06C1675.95 852.72 1675.14 832.29 1674.96 811.77ZM1751.37 911.94L1781.88 921.39C1773.42 941.01 1763.16 959.46 1751.1 976.74C1739.04 993.84 1725.72 1009.32 1711.14 1023.18C1696.56 1037.04 1681.08 1049.01 1664.7 1059.09C1663.26 1056.93 1661.1 1054.23 1658.22 1050.99C1655.52 1047.75 1652.73 1044.51 1649.85 1041.27C1646.97 1038.21 1644.36 1035.69 1642.02 1033.71C1658.04 1025.07 1672.98 1014.72 1686.84 1002.66C1700.7 990.42 1713.12 976.65 1724.1 961.35C1735.08 946.05 1744.17 929.58 1751.37 911.94ZM1714.65 831.21L1736.25 813.66C1740.93 817.08 1745.7 820.95 1750.56 825.27C1755.42 829.59 1760.01 833.91 1764.33 838.23C1768.83 842.55 1772.34 846.51 1774.86 850.11L1751.91 869.82C1749.57 866.22 1746.33 862.17 1742.19 857.67C1738.05 852.99 1733.55 848.4 1728.69 843.9C1723.83 839.22 1719.15 834.99 1714.65 831.21Z" fill="#808080" fill-opacity="0.4"/>
<rect x="562" y="466" width="796" height="149" fill="black"/>
<g clip-path="url(#clip1_217_4)">
<mask id="mask0_217_4" style="mask-type:luminance" maskUnits="userSpaceOnUse" x="584" y="476" width="472" height="113">
<path d="M1055.09 476H584V589H1055.09V476Z" fill="white"/>
</mask>
<g mask="url(#mask0_217_4)">
<path d="M730.856 548.285H737.073C737.756 557.231 743.973 559.689 752.034 559.689C760.778 559.689 765.97 556.753 765.97 551.085C765.97 544.939 760.027 544.188 754.493 543.369L748.003 542.481C739.737 541.32 732.223 538.589 732.223 530.736C732.223 522.541 738.098 515.645 751.077 515.645C765.696 515.645 770.069 524.18 770.752 532.306H764.535C763.852 523.702 758.25 520.903 751.077 520.903C741.445 520.903 738.371 526.092 738.371 530.394C738.371 534.97 742.196 535.925 749.233 536.95L756.201 537.974C765.287 539.272 772.118 541.867 772.118 550.744C772.118 558.938 765.628 564.947 751.965 564.947C736.185 564.947 731.54 557.094 730.856 548.285ZM781.341 556.207V577.853H775.536V530.053H781.341V538.042H782.025C783.527 533.535 787.763 529.302 795.073 529.302C804.568 529.302 811.946 537.291 811.946 547.261C811.946 556.958 804.841 564.947 795.347 564.947C788.105 564.947 783.46 560.714 782.025 556.207H781.341ZM806.071 547.193C806.071 540.091 800.606 534.423 793.774 534.423C786.876 534.423 781.341 540.091 781.341 547.193C781.341 554.158 786.876 559.826 793.774 559.826C800.606 559.826 806.071 554.158 806.071 547.193ZM846.618 538.042V530.053H852.493V564.196H846.618V556.207H845.935C844.499 560.918 839.923 564.947 832.886 564.947C823.458 564.947 816.081 556.958 816.081 546.988C816.081 537.291 823.185 529.302 832.612 529.302C839.65 529.302 844.568 533.331 845.935 538.042H846.618ZM821.955 547.056C821.955 554.158 827.421 559.826 834.252 559.826C841.153 559.826 846.618 554.158 846.618 547.056C846.618 540.091 841.153 534.423 834.252 534.423C827.421 534.423 821.955 540.091 821.955 547.056ZM863.801 538.042H864.484C865.371 533.535 869.266 529.302 875.209 529.302C883.133 529.302 887.231 535.174 887.231 546.1H881.357C881.357 537.633 878.078 534.423 873.638 534.423C868.377 534.423 863.801 539.954 863.801 547.671V564.196H857.926V530.053H863.801V538.042ZM891.348 564.196V516.396H897.155V544.325H901.324L914.369 530.053H920.861L905.899 547.125L921.337 564.196H914.917L901.324 549.788H897.155V564.196H891.348ZM924.839 572.527V567.542H962.411V572.527H924.839ZM967.87 520.356C967.87 518.308 969.509 516.805 971.557 516.805C973.608 516.805 975.247 518.308 975.247 520.356C975.247 522.473 973.608 523.975 971.557 523.975C969.509 523.975 967.87 522.473 967.87 520.356ZM968.621 564.196V530.053H974.495V564.196H968.621ZM980.145 530.053H985.95V538.042H986.635C988.001 533.535 992.306 529.302 999.34 529.302C1008.29 529.302 1014.71 537.155 1014.71 547.125V564.196H1008.84V547.125C1008.84 539.681 1003.85 534.423 997.565 534.423C991.142 534.423 985.95 540.023 985.95 547.125V564.196H980.145V530.053ZM1019.5 520.356C1019.5 518.308 1021.14 516.805 1023.19 516.805C1025.24 516.805 1026.88 518.308 1026.88 520.356C1026.88 522.473 1025.24 523.975 1023.19 523.975C1021.14 523.975 1019.5 522.473 1019.5 520.356ZM1020.26 564.196V530.053H1026.13V564.196H1020.26ZM1030.4 530.053C1039.22 530.053 1038.74 527.321 1038.74 523.156V519.81H1044.75V523.634C1044.75 526.775 1044.68 529.37 1040.58 529.37V530.053H1054.93V535.243H1044.55V555.182C1044.55 558.597 1044.96 559.143 1048.37 559.143H1054.25V564.196H1046.53C1041.13 564.196 1038.74 562.011 1038.74 556.343V535.243H1030.4V530.053Z" fill="white"/>
<g clip-path="url(#clip2_217_4)">
<mask id="mask1_217_4" style="mask-type:luminance" maskUnits="userSpaceOnUse" x="586" y="471" width="90" height="117">
<path d="M676 471H586V588H676V471Z" fill="white"/>
</mask>
<g mask="url(#mask1_217_4)">
<path d="M656.444 478.064L664.003 478.061L640.2 552.276L621.993 534.051L656.444 478.064Z" fill="url(#paint0_linear_217_4)"/>
<path d="M640.219 533.971H621.964V552.224H640.219V533.971Z" fill="white"/>
<path d="M676 498.014H671.254V588H676V498.014Z" fill="white"/>
<path d="M590.746 498.014H586V588H590.746V498.014Z" fill="white"/>
<path d="M676 502.759V498.014H586V502.759H676Z" fill="white"/>
<path d="M676 588V583.254H586V588H676Z" fill="white"/>
</g>
</g>
</g>
<path d="M1150.76 539.014V553.313H1140.64V564.037C1140.64 567.854 1139.55 569.672 1135.06 569.672H1129.31L1127.98 564.764H1135.73V553.313H1124.76V538.711C1123.49 539.68 1122.16 540.65 1120.77 541.619L1118.4 537.378C1120.7 535.984 1122.7 534.53 1124.52 533.076C1123.49 531.743 1122.28 530.41 1121.07 529.016C1119.01 532.47 1116.64 535.318 1113.8 538.287C1113.74 542.952 1113.49 546.042 1113.07 549.677L1113.37 549.859L1114.52 548.829C1115.55 547.981 1116.4 548.163 1117.19 549.253L1122.95 557.069L1119.07 560.826L1113.19 552.525C1112.89 552.101 1112.71 552.04 1112.59 552.465C1111.13 558.342 1108.47 564.037 1103.13 570.641L1099.56 566.097C1107.25 556.221 1108.77 549.496 1108.77 533.682V514.959H1113.86V531.682C1115.49 529.622 1117.01 527.32 1118.46 524.533L1120.34 526.774L1122.83 524.533C1124.46 526.169 1126.34 528.047 1127.85 529.925C1129.49 528.107 1130.82 526.169 1131.85 523.927H1119.98V519.443H1133.55C1134.03 517.868 1134.4 516.171 1134.7 514.293L1139.37 514.838C1139.06 516.474 1138.7 517.989 1138.34 519.443H1155.24V523.927H1142.82C1143.79 526.047 1145.06 527.926 1146.52 529.622C1148.15 528.168 1149.67 526.411 1151 524.411L1154.51 527.259C1152.88 529.319 1151.36 531.016 1149.48 532.591C1151.67 534.469 1154.09 536.045 1156.51 537.438L1154.45 541.437C1153.24 540.71 1152.03 539.922 1150.76 539.014ZM1138.15 523.927H1136.76C1135.49 527.077 1133.91 529.622 1132.03 531.925H1143C1140.88 529.44 1139.12 526.774 1138.15 523.927ZM1101.86 526.29L1106.22 526.532C1106.16 533.258 1105.74 539.801 1104.04 545.497L1099.8 543.497C1101.32 538.953 1101.8 533.076 1101.86 526.29ZM1129.43 540.407H1146.09V536.166H1129.43V540.407ZM1146.09 544.406H1129.43V549.072H1146.09V544.406ZM1128.7 553.858L1132.16 557.069C1128.88 561.25 1124.52 565.007 1120.28 567.673L1117.55 563.25C1121.8 560.826 1125.79 557.494 1128.7 553.858ZM1143.55 557.009L1147.06 553.919C1149.79 556.342 1153.73 560.584 1156.21 563.795L1152.57 567.612C1149.91 563.916 1146.7 560.281 1143.55 557.009ZM1194.62 527.017H1211.35V551.313H1196.62V564.764C1196.62 568.46 1194.99 570.036 1191.05 570.036H1183.72L1182.51 565.067H1191.17V551.313H1175.96V527.017H1188.93C1189.72 525.139 1190.26 523.381 1190.63 521.564H1170.99V531.622C1170.99 547.254 1169.54 560.644 1164.81 570.278L1160.15 566.097C1164.21 558.099 1165.42 547.011 1165.42 531.5V516.535H1215.71V521.564H1196.32C1195.96 523.321 1195.29 525.381 1194.62 527.017ZM1181.29 536.893H1205.95V531.561H1181.29V536.893ZM1181.29 546.769H1205.95V541.134H1181.29V546.769ZM1200.74 556.282L1205.05 553.434C1208.62 556.645 1212.68 561.189 1215.83 565.673L1211.41 569.066C1208.68 565.007 1204.38 559.917 1200.74 556.282ZM1180.75 553.495L1185.41 555.918C1182.45 561.068 1177.96 565.976 1173.72 568.945L1169.72 565.188C1174.08 562.22 1178.02 558.099 1180.75 553.495ZM1261.03 532.955H1276.78V538.468H1261.03V570.278H1255.27V538.468H1240.19V532.955H1255.27V515.02H1261.03V532.955ZM1238.61 525.26L1235.1 529.137C1231.95 525.926 1227.34 521.806 1223.89 519.14L1227.4 515.323C1230.98 518.05 1235.1 521.685 1238.61 525.26ZM1234.92 533.076V559.796C1238.01 557.736 1240.85 555.676 1243.28 553.737L1245.1 558.342C1241.4 561.371 1234.8 566.037 1229.89 568.945L1227.65 564.28C1229.16 563.371 1229.64 562.583 1229.64 560.099V537.984H1221.53V533.076H1234.92ZM1308.65 563.552L1309.56 552.101L1314.47 554.222L1313.44 564.583C1312.96 569.43 1308.53 570.339 1305.08 567.612C1301.99 565.37 1299.38 562.098 1297.26 558.099C1293.51 561.371 1289.2 564.401 1284.24 567.37L1281.39 562.401C1286.72 559.372 1291.14 556.282 1294.9 553.01C1292.9 547.86 1291.45 541.922 1290.54 535.499L1282.84 536.105L1282.42 530.955L1289.99 530.349C1289.57 526.29 1289.39 521.988 1289.39 517.686V515.384H1294.84V517.565C1294.84 521.927 1295.02 526.047 1295.38 529.925L1313.26 528.532L1313.68 533.682L1295.99 535.075C1296.72 540.225 1297.75 544.891 1299.14 548.89C1302.53 545.254 1305.32 541.255 1307.87 536.893L1312.29 539.741C1309.14 545.073 1305.62 549.859 1301.32 554.222C1303.32 558.463 1305.81 561.614 1308.65 563.552ZM1329.8 563.855V515.505H1335.25V563.492C1335.25 567.733 1333.37 569.49 1329.19 569.49H1321.2L1319.68 563.855H1329.8ZM1311.02 523.866L1307.62 527.683C1304.35 524.351 1301.2 521.746 1297.93 519.383L1301.2 515.808C1304.66 518.05 1307.93 520.776 1311.02 523.866ZM1317.56 518.292H1322.89V557.615H1317.56V518.292Z" fill="white"/>
</g>
</g>
<defs>
<pattern id="pattern0_217_4" patternContentUnits="objectBoundingBox" width="1" height="1">
<use xlink:href="#image0_217_4" transform="scale(0.000292569 0.000462963)"/>
</pattern>
<linearGradient id="paint0_linear_217_4" x1="660.044" y1="470.157" x2="628.988" y2="560.363" gradientUnits="userSpaceOnUse">
<stop stop-color="#F83A00"/>
<stop offset="1" stop-color="white"/>
</linearGradient>
<clipPath id="clip0_217_4">
<rect width="1920" height="1080" fill="white"/>
</clipPath>
<clipPath id="clip1_217_4">
<rect width="751.314" height="113" fill="white" transform="translate(584 476)"/>
</clipPath>
<clipPath id="clip2_217_4">
<rect width="90" height="117" fill="white" transform="translate(586 471)"/>
</clipPath>
<image id="image0_217_4" width="3418" height="2160" preserveAspectRatio="none" xlink:href="" />
</defs>
</svg>
